<mxfile host="Electron" modified="2024-01-17T01:56:53.790Z" agent="Mozilla/5.0 (Windows NT 10.0; Win64; x64) AppleWebKit/537.36 (KHTML, like Gecko) draw.io/22.1.18 Chrome/120.0.6099.199 Electron/28.1.2 Safari/537.36" etag="HF0jlus9TOBoOi7SY-Ji" version="22.1.18" type="device">
  <diagram name="第 1 页" id="sVmkJF95uzmY4jE1sGfJ">
    <mxGraphModel dx="1434" dy="836" grid="1" gridSize="10" guides="1" tooltips="1" connect="1" arrows="1" fold="1" page="1" pageScale="1" pageWidth="827" pageHeight="1169" math="0" shadow="0">
      <root>
        <mxCell id="0" />
        <mxCell id="1" parent="0" />
        <mxCell id="VllQxeJ25ibJScMf954b-31" style="edgeStyle=orthogonalEdgeStyle;rounded=0;orthogonalLoop=1;jettySize=auto;html=1;exitX=1;exitY=0.5;exitDx=0;exitDy=0;" edge="1" parent="1" source="VllQxeJ25ibJScMf954b-2" target="VllQxeJ25ibJScMf954b-4">
          <mxGeometry relative="1" as="geometry" />
        </mxCell>
        <mxCell id="VllQxeJ25ibJScMf954b-2" value="14" style="rounded=0;whiteSpace=wrap;html=1;fontSize=16;" vertex="1" parent="1">
          <mxGeometry x="540" y="400" width="40" height="60" as="geometry" />
        </mxCell>
        <mxCell id="VllQxeJ25ibJScMf954b-4" value="16" style="rounded=0;whiteSpace=wrap;html=1;fontSize=16;" vertex="1" parent="1">
          <mxGeometry x="610" y="400" width="40" height="60" as="geometry" />
        </mxCell>
        <mxCell id="VllQxeJ25ibJScMf954b-5" style="edgeStyle=orthogonalEdgeStyle;rounded=0;orthogonalLoop=1;jettySize=auto;html=1;exitX=1;exitY=0.5;exitDx=0;exitDy=0;fontSize=16;entryX=0;entryY=0.5;entryDx=0;entryDy=0;" edge="1" parent="1" source="VllQxeJ25ibJScMf954b-6" target="VllQxeJ25ibJScMf954b-2">
          <mxGeometry relative="1" as="geometry">
            <Array as="points">
              <mxPoint x="460" y="430" />
              <mxPoint x="460" y="470" />
              <mxPoint x="520" y="470" />
              <mxPoint x="520" y="430" />
            </Array>
          </mxGeometry>
        </mxCell>
        <mxCell id="VllQxeJ25ibJScMf954b-6" value="12" style="rounded=0;whiteSpace=wrap;html=1;fontSize=16;" vertex="1" parent="1">
          <mxGeometry x="400" y="400" width="40" height="60" as="geometry" />
        </mxCell>
        <mxCell id="VllQxeJ25ibJScMf954b-30" style="edgeStyle=orthogonalEdgeStyle;rounded=0;orthogonalLoop=1;jettySize=auto;html=1;exitX=1;exitY=0.5;exitDx=0;exitDy=0;" edge="1" parent="1" source="VllQxeJ25ibJScMf954b-7" target="VllQxeJ25ibJScMf954b-2">
          <mxGeometry relative="1" as="geometry" />
        </mxCell>
        <mxCell id="VllQxeJ25ibJScMf954b-7" value="14" style="rounded=1;whiteSpace=wrap;html=1;fontSize=16;fillColor=#FF0000;strokeColor=#FF0000;" vertex="1" parent="1">
          <mxGeometry x="470" y="400" width="40" height="60" as="geometry" />
        </mxCell>
        <mxCell id="VllQxeJ25ibJScMf954b-8" style="edgeStyle=orthogonalEdgeStyle;rounded=0;orthogonalLoop=1;jettySize=auto;html=1;exitX=1;exitY=0.5;exitDx=0;exitDy=0;entryX=0;entryY=0.5;entryDx=0;entryDy=0;fontSize=16;" edge="1" parent="1" source="VllQxeJ25ibJScMf954b-9" target="VllQxeJ25ibJScMf954b-6">
          <mxGeometry relative="1" as="geometry" />
        </mxCell>
        <mxCell id="VllQxeJ25ibJScMf954b-9" value="10" style="rounded=0;whiteSpace=wrap;html=1;shadow=0;glass=0;fontSize=16;labelBackgroundColor=none;fillColor=#FFFFFF;fontColor=#000000;strokeColor=#000000;" vertex="1" parent="1">
          <mxGeometry x="330" y="400" width="40" height="60" as="geometry" />
        </mxCell>
        <mxCell id="VllQxeJ25ibJScMf954b-10" style="edgeStyle=orthogonalEdgeStyle;rounded=0;orthogonalLoop=1;jettySize=auto;html=1;exitX=1;exitY=0.5;exitDx=0;exitDy=0;entryX=0;entryY=0.5;entryDx=0;entryDy=0;fontSize=16;" edge="1" parent="1" source="VllQxeJ25ibJScMf954b-11" target="VllQxeJ25ibJScMf954b-12">
          <mxGeometry relative="1" as="geometry" />
        </mxCell>
        <mxCell id="VllQxeJ25ibJScMf954b-11" value="10&lt;br style=&quot;font-size: 16px;&quot;&gt;——&lt;br style=&quot;font-size: 16px;&quot;&gt;1" style="rounded=0;whiteSpace=wrap;html=1;fontSize=16;" vertex="1" parent="1">
          <mxGeometry x="330" y="340" width="40" height="60" as="geometry" />
        </mxCell>
        <mxCell id="VllQxeJ25ibJScMf954b-34" style="edgeStyle=orthogonalEdgeStyle;rounded=0;orthogonalLoop=1;jettySize=auto;html=1;exitX=1;exitY=0.5;exitDx=0;exitDy=0;entryX=0;entryY=0.5;entryDx=0;entryDy=0;" edge="1" parent="1" source="VllQxeJ25ibJScMf954b-12" target="VllQxeJ25ibJScMf954b-33">
          <mxGeometry relative="1" as="geometry" />
        </mxCell>
        <mxCell id="VllQxeJ25ibJScMf954b-12" value="14&lt;br style=&quot;font-size: 16px;&quot;&gt;——&lt;br style=&quot;font-size: 16px;&quot;&gt;1" style="rounded=0;whiteSpace=wrap;html=1;fontSize=16;" vertex="1" parent="1">
          <mxGeometry x="470" y="340" width="40" height="60" as="geometry" />
        </mxCell>
        <mxCell id="VllQxeJ25ibJScMf954b-13" value="" style="endArrow=classic;html=1;rounded=0;entryX=0;entryY=0.5;entryDx=0;entryDy=0;fontSize=16;" edge="1" parent="1" target="VllQxeJ25ibJScMf954b-11">
          <mxGeometry width="50" height="50" relative="1" as="geometry">
            <mxPoint x="290" y="370" as="sourcePoint" />
            <mxPoint x="280" y="440" as="targetPoint" />
          </mxGeometry>
        </mxCell>
        <mxCell id="VllQxeJ25ibJScMf954b-14" style="edgeStyle=orthogonalEdgeStyle;rounded=0;orthogonalLoop=1;jettySize=auto;html=1;exitX=1;exitY=0.5;exitDx=0;exitDy=0;entryX=0;entryY=0.5;entryDx=0;entryDy=0;fontSize=16;" edge="1" parent="1" source="VllQxeJ25ibJScMf954b-15" target="VllQxeJ25ibJScMf954b-17">
          <mxGeometry relative="1" as="geometry" />
        </mxCell>
        <mxCell id="VllQxeJ25ibJScMf954b-15" value="14" style="rounded=0;whiteSpace=wrap;html=1;fontSize=16;" vertex="1" parent="1">
          <mxGeometry x="980" y="400" width="40" height="60" as="geometry" />
        </mxCell>
        <mxCell id="VllQxeJ25ibJScMf954b-16" style="edgeStyle=orthogonalEdgeStyle;rounded=0;orthogonalLoop=1;jettySize=auto;html=1;fontSize=16;" edge="1" parent="1" target="VllQxeJ25ibJScMf954b-22">
          <mxGeometry relative="1" as="geometry">
            <mxPoint x="740" y="430" as="sourcePoint" />
          </mxGeometry>
        </mxCell>
        <mxCell id="VllQxeJ25ibJScMf954b-17" value="16" style="rounded=0;whiteSpace=wrap;html=1;fontSize=16;" vertex="1" parent="1">
          <mxGeometry x="1050" y="400" width="40" height="60" as="geometry" />
        </mxCell>
        <mxCell id="VllQxeJ25ibJScMf954b-18" style="edgeStyle=orthogonalEdgeStyle;rounded=0;orthogonalLoop=1;jettySize=auto;html=1;exitX=1;exitY=0.5;exitDx=0;exitDy=0;fontSize=16;entryX=0;entryY=0.5;entryDx=0;entryDy=0;" edge="1" parent="1" source="VllQxeJ25ibJScMf954b-19" target="VllQxeJ25ibJScMf954b-15">
          <mxGeometry relative="1" as="geometry">
            <Array as="points">
              <mxPoint x="900" y="430" />
              <mxPoint x="900" y="470" />
              <mxPoint x="960" y="470" />
              <mxPoint x="960" y="430" />
            </Array>
          </mxGeometry>
        </mxCell>
        <mxCell id="VllQxeJ25ibJScMf954b-19" value="12" style="rounded=0;whiteSpace=wrap;html=1;fontSize=16;" vertex="1" parent="1">
          <mxGeometry x="840" y="400" width="40" height="60" as="geometry" />
        </mxCell>
        <mxCell id="VllQxeJ25ibJScMf954b-35" style="edgeStyle=orthogonalEdgeStyle;rounded=0;orthogonalLoop=1;jettySize=auto;html=1;exitX=1;exitY=0.5;exitDx=0;exitDy=0;entryX=0;entryY=0.5;entryDx=0;entryDy=0;" edge="1" parent="1" source="VllQxeJ25ibJScMf954b-20" target="VllQxeJ25ibJScMf954b-15">
          <mxGeometry relative="1" as="geometry" />
        </mxCell>
        <mxCell id="VllQxeJ25ibJScMf954b-20" value="14" style="rounded=1;whiteSpace=wrap;html=1;fontSize=16;strokeColor=#FF0000;fillColor=#FF0000;" vertex="1" parent="1">
          <mxGeometry x="910" y="400" width="40" height="60" as="geometry" />
        </mxCell>
        <mxCell id="VllQxeJ25ibJScMf954b-21" style="edgeStyle=orthogonalEdgeStyle;rounded=0;orthogonalLoop=1;jettySize=auto;html=1;exitX=1;exitY=0.5;exitDx=0;exitDy=0;entryX=0;entryY=0.5;entryDx=0;entryDy=0;fontSize=16;" edge="1" parent="1" source="VllQxeJ25ibJScMf954b-22" target="VllQxeJ25ibJScMf954b-19">
          <mxGeometry relative="1" as="geometry" />
        </mxCell>
        <mxCell id="VllQxeJ25ibJScMf954b-22" value="10" style="rounded=0;whiteSpace=wrap;html=1;shadow=0;glass=0;fontSize=16;fillColor=#FFFFFF;fontColor=#000000;strokeColor=#000000;" vertex="1" parent="1">
          <mxGeometry x="770" y="400" width="40" height="60" as="geometry" />
        </mxCell>
        <mxCell id="VllQxeJ25ibJScMf954b-23" style="edgeStyle=orthogonalEdgeStyle;rounded=0;orthogonalLoop=1;jettySize=auto;html=1;entryX=0;entryY=0.5;entryDx=0;entryDy=0;fontSize=16;" edge="1" parent="1" target="VllQxeJ25ibJScMf954b-28">
          <mxGeometry relative="1" as="geometry">
            <mxPoint x="740" y="370" as="sourcePoint" />
          </mxGeometry>
        </mxCell>
        <mxCell id="VllQxeJ25ibJScMf954b-24" value="16&lt;br style=&quot;font-size: 16px;&quot;&gt;——&lt;br style=&quot;font-size: 16px;&quot;&gt;3" style="rounded=0;whiteSpace=wrap;html=1;fontSize=16;" vertex="1" parent="1">
          <mxGeometry x="1050" y="340" width="40" height="60" as="geometry" />
        </mxCell>
        <mxCell id="VllQxeJ25ibJScMf954b-37" style="edgeStyle=orthogonalEdgeStyle;rounded=0;orthogonalLoop=1;jettySize=auto;html=1;exitX=1;exitY=0.5;exitDx=0;exitDy=0;" edge="1" parent="1" source="VllQxeJ25ibJScMf954b-25">
          <mxGeometry relative="1" as="geometry">
            <mxPoint x="1050" y="370" as="targetPoint" />
          </mxGeometry>
        </mxCell>
        <mxCell id="VllQxeJ25ibJScMf954b-25" value="14&lt;br style=&quot;font-size: 16px;&quot;&gt;——&lt;br style=&quot;font-size: 16px;&quot;&gt;1" style="rounded=1;whiteSpace=wrap;html=1;fontSize=16;strokeColor=#FF0000;fillColor=#FF0000;" vertex="1" parent="1">
          <mxGeometry x="910" y="340" width="40" height="60" as="geometry" />
        </mxCell>
        <mxCell id="VllQxeJ25ibJScMf954b-27" style="edgeStyle=orthogonalEdgeStyle;rounded=0;orthogonalLoop=1;jettySize=auto;html=1;exitX=1;exitY=0.5;exitDx=0;exitDy=0;fontSize=16;entryX=0;entryY=0.5;entryDx=0;entryDy=0;" edge="1" parent="1" source="VllQxeJ25ibJScMf954b-28" target="VllQxeJ25ibJScMf954b-24">
          <mxGeometry relative="1" as="geometry">
            <mxPoint x="1040" y="370" as="targetPoint" />
            <Array as="points">
              <mxPoint x="880" y="370" />
              <mxPoint x="880" y="320" />
              <mxPoint x="980" y="320" />
              <mxPoint x="980" y="370" />
            </Array>
          </mxGeometry>
        </mxCell>
        <mxCell id="VllQxeJ25ibJScMf954b-28" value="10&lt;br style=&quot;font-size: 16px;&quot;&gt;——&lt;br style=&quot;font-size: 16px;&quot;&gt;1" style="rounded=0;whiteSpace=wrap;html=1;shadow=0;glass=0;fontSize=16;fillColor=#FFFFFF;fontColor=#000000;strokeColor=#000000;" vertex="1" parent="1">
          <mxGeometry x="770" y="340" width="40" height="60" as="geometry" />
        </mxCell>
        <mxCell id="VllQxeJ25ibJScMf954b-29" value="" style="shape=flexArrow;endArrow=classic;html=1;rounded=0;fontSize=16;" edge="1" parent="1">
          <mxGeometry width="50" height="50" relative="1" as="geometry">
            <mxPoint x="670" y="400" as="sourcePoint" />
            <mxPoint x="730" y="400" as="targetPoint" />
          </mxGeometry>
        </mxCell>
        <mxCell id="VllQxeJ25ibJScMf954b-32" value="" style="endArrow=classic;html=1;rounded=0;entryX=0;entryY=0.5;entryDx=0;entryDy=0;fontSize=16;" edge="1" parent="1" target="VllQxeJ25ibJScMf954b-9">
          <mxGeometry width="50" height="50" relative="1" as="geometry">
            <mxPoint x="290" y="430" as="sourcePoint" />
            <mxPoint x="340" y="380" as="targetPoint" />
          </mxGeometry>
        </mxCell>
        <mxCell id="VllQxeJ25ibJScMf954b-33" value="16&lt;br style=&quot;font-size: 16px;&quot;&gt;——&lt;br style=&quot;font-size: 16px;&quot;&gt;2" style="rounded=0;whiteSpace=wrap;html=1;fontSize=16;" vertex="1" parent="1">
          <mxGeometry x="610" y="340" width="40" height="60" as="geometry" />
        </mxCell>
      </root>
    </mxGraphModel>
  </diagram>
</mxfile>
